<svg width="24" height="24" viewBox="0 0 24 24" fill="none" xmlns="http://www.w3.org/2000/svg">
<g clip-path="url(#clip0_1612_19198)">
<path d="M17.8271 6.61393C18.2148 6.61393 18.5428 6.94199 18.5428 7.32969C18.5428 7.74722 18.2148 8.04545 17.8271 8.04545H17.4692L16.7534 17.738C16.664 18.752 15.8587 19.4976 14.8447 19.4976H8.85028C7.8363 19.4976 7.03107 18.752 6.9416 17.738L6.22584 8.04545H5.89779C5.48026 8.04545 5.18203 7.74722 5.18203 7.32969C5.18203 6.94199 5.48026 6.61393 5.89779 6.61393H7.95559L9.05905 4.97366C9.35728 4.52631 9.8941 4.22808 10.4607 4.22808H13.2343C13.8009 4.22808 14.3378 4.52631 14.636 4.97366L15.7394 6.61393H17.8271ZM10.4607 5.65959C10.3713 5.65959 10.2818 5.71924 10.252 5.77888L9.68533 6.61393H14.0097L13.4431 5.77888C13.4132 5.71924 13.3238 5.65959 13.2343 5.65959H10.4607ZM16.0377 8.04545H7.65736L8.37311 17.6485C8.40294 17.8871 8.6117 18.066 8.85028 18.066H14.8447C15.0833 18.066 15.2921 17.8871 15.3219 17.6485L16.0377 8.04545Z" fill="#D93025"/>
</g>
<defs>
<clipPath id="clip0_1612_19198">
<rect width="22.9082" height="22.9042" fill="white" transform="translate(0.408325 0.588867)"/>
</clipPath>
</defs>
</svg>
