<svg width="16" height="14" viewBox="0 0 16 14" fill="none" xmlns="http://www.w3.org/2000/svg">
<path d="M4.76082 2.80686C5.53622 2.80686 6.19233 3.46297 6.19233 4.23837C6.19233 5.0436 5.53622 5.66989 4.76082 5.66989C3.95559 5.66989 3.3293 5.0436 3.3293 4.23837C3.3293 3.46297 3.95559 2.80686 4.76082 2.80686ZM13.5587 0.182421C14.6323 0.182421 15.4673 1.04729 15.4673 2.09111V11.6345C15.4673 12.7082 14.6025 13.5432 13.5587 13.5432H2.10655C1.06274 13.5432 0.197868 12.7082 0.197868 11.6345V2.09111C0.197868 1.04729 1.06274 0.182421 2.10655 0.182421H13.5587ZM14.0358 11.4556V2.09111C14.0358 1.85252 13.8271 1.61393 13.5587 1.61393H2.10655C1.86797 1.61393 1.62938 1.85252 1.62938 2.09111L1.6592 11.6345L3.89594 8.83115C4.01524 8.71185 4.16435 8.62238 4.34329 8.62238C4.52223 8.62238 4.67135 8.71185 4.79064 8.83115L5.8941 10.203L9.05535 5.90847C9.17465 5.75936 9.32376 5.66989 9.53253 5.66989C9.71146 5.66989 9.86058 5.75936 9.95005 5.90847L14.0358 11.4556Z" fill="#003D5B"/>
</svg>
